<svg xmlns="http://www.w3.org/2000/svg" viewBox="0 0 300 180" fill="none">
  <!-- Lugia silhouette inspired by Pokemon Silver title screen -->
  <path d="M 45 85 Q 40 75 42 65 Q 44 55 50 50 L 58 48 Q 65 45 70 48 L 75 52 Q 78 58 82 62 L 88 68 Q 92 72 95 78 L 100 85 Q 105 92 112 95 L 125 100 Q 135 102 145 100 L 160 95 Q 170 90 178 85 L 188 78 Q 195 72 200 68 L 208 62 Q 215 58 220 58 L 228 60 Q 235 63 240 68 L 245 75 Q 248 82 250 90 L 252 100 Q 253 108 252 115 L 248 125 Q 245 132 240 138 L 232 145 Q 225 150 218 152 L 210 154 Q 202 155 195 153 L 185 148 Q 178 143 172 138 L 165 130 Q 160 123 158 115 L 155 105 Q 152 98 148 92 L 142 85 Q 135 78 128 75 L 118 72 Q 108 70 98 72 L 85 77 Q 75 82 68 90 L 60 100 Q 55 108 52 118 L 48 130 Q 45 140 43 150 L 42 160 Q 42 168 44 175 L 48 180 L 45 178 Q 40 172 38 165 L 35 155 Q 33 145 32 135 L 32 120 Q 33 108 36 98 L 40 88 Z M 75 60 Q 72 65 70 70 L 68 78 Q 68 83 70 88 L 73 93 Q 76 96 80 96 L 85 94 Q 88 90 90 85 L 91 78 Q 90 72 88 68 L 84 63 Q 80 60 75 60 Z" fill="#2c3e50" opacity="0.85"/>
  <!-- Wing detail -->
  <path d="M 120 88 Q 115 95 110 100 L 105 108 Q 102 115 100 122 L 98 132 Q 97 140 98 148 L 100 155 Q 102 160 105 164 L 108 167 Q 110 169 113 170 L 115 168 Q 117 165 118 160 L 120 150 Q 121 140 120 130 L 118 118 Q 116 108 113 100 L 108 92 Q 105 88 102 85 L 100 83 Q 102 84 105 86 L 110 88 Q 115 89 120 88 Z" fill="#1a252f" opacity="0.7"/>
  <!-- Tail feathers -->
  <path d="M 42 150 Q 38 155 35 162 L 32 172 Q 30 180 28 188 L 26 195 Q 25 200 24 205 L 22 210 Q 20 213 18 215 L 15 217 Q 13 218 11 218 L 9 216 Q 8 213 8 210 L 10 202 Q 12 195 15 188 L 20 178 Q 24 170 28 163 L 33 156 Q 36 152 40 149 Z M 48 155 Q 45 162 43 170 L 41 180 Q 40 188 39 196 L 38 205 Q 37 212 36 218 L 34 223 Q 32 226 30 228 L 27 230 Q 25 230 23 229 L 21 226 Q 21 222 22 218 L 25 208 Q 28 200 32 192 L 37 182 Q 41 174 45 167 L 48 162 Z" fill="#1a252f" opacity="0.6"/>
</svg>
